<svg width="445" height="157" viewBox="0 0 445 157" fill="none" xmlns="http://www.w3.org/2000/svg">
<path d="M30.896 90.96C23.856 90.96 18.064 90 13.52 88.08C8.976 86.16 5.712 83.632 3.728 80.496C1.808 77.36 1.168 74.032 1.808 70.512C1.936 69.936 2.224 69.456 2.672 69.072C3.184 68.624 3.728 68.4 4.304 68.4H22.544C23.568 68.4 24.304 68.56 24.752 68.88C25.264 69.136 25.808 69.52 26.384 70.032C26.896 70.48 27.44 70.896 28.016 71.28C28.656 71.6 29.392 71.856 30.224 72.048C31.056 72.176 31.984 72.24 33.008 72.24C35.184 72.24 36.976 72.016 38.384 71.568C39.792 71.056 40.592 70.384 40.784 69.552C40.976 68.784 40.752 68.144 40.112 67.632C39.472 67.12 38.288 66.672 36.56 66.288C34.832 65.84 32.432 65.424 29.36 65.04C24.432 64.336 20.304 63.056 16.976 61.2C13.648 59.28 11.28 56.752 9.872 53.616C8.528 50.48 8.336 46.8 9.296 42.576C10.64 36.048 14.096 30.96 19.664 27.312C25.232 23.664 32.368 21.84 41.072 21.84C45.424 21.84 49.36 22.48 52.88 23.76C56.464 24.976 59.504 26.608 62 28.656C64.56 30.64 66.448 32.784 67.664 35.088C68.88 37.392 69.296 39.6 68.912 41.712C68.848 42.288 68.56 42.8 68.048 43.248C67.536 43.632 67.024 43.824 66.512 43.824H47.312C46.416 43.824 45.712 43.696 45.2 43.44C44.752 43.184 44.272 42.8 43.76 42.288C43.504 41.968 42.992 41.616 42.224 41.232C41.456 40.784 40.4 40.56 39.056 40.56C37.456 40.56 36.24 40.816 35.408 41.328C34.576 41.776 34.064 42.416 33.872 43.248C33.744 43.824 33.904 44.368 34.352 44.88C34.864 45.392 35.824 45.84 37.232 46.224C38.704 46.608 40.848 46.992 43.664 47.376C49.936 48.144 54.8 49.488 58.256 51.408C61.776 53.328 64.112 55.824 65.264 58.896C66.416 61.904 66.544 65.488 65.648 69.648C64.176 76.624 60.528 81.936 54.704 85.584C48.88 89.168 40.944 90.96 30.896 90.96ZM100.423 90.96C96.3273 90.96 92.4233 90.448 88.7113 89.424C84.9993 88.336 81.7673 86.736 79.0153 84.624C76.3273 82.448 74.4073 79.728 73.2553 76.464C72.1033 73.136 72.0073 69.2 72.9673 64.656L81.3193 25.392C81.4473 24.688 81.7993 24.08 82.3753 23.568C83.0153 23.056 83.6873 22.8 84.3913 22.8H103.207C103.911 22.8 104.455 23.056 104.839 23.568C105.287 24.08 105.447 24.688 105.319 25.392L96.9673 64.272C96.4553 66.64 96.6473 68.464 97.5433 69.744C98.5033 71.024 100.167 71.664 102.535 71.664C104.903 71.664 106.791 71.024 108.199 69.744C109.671 68.464 110.663 66.64 111.175 64.272L119.527 25.392C119.655 24.688 120.007 24.08 120.583 23.568C121.223 23.056 121.895 22.8 122.599 22.8H141.415C142.119 22.8 142.663 23.056 143.047 23.568C143.495 24.08 143.655 24.688 143.527 25.392L135.175 64.656C133.255 73.744 129.511 80.4 123.943 84.624C118.375 88.848 110.535 90.96 100.423 90.96ZM143.73 90C143.027 90 142.483 89.744 142.099 89.232C141.715 88.72 141.587 88.112 141.715 87.408L154.867 25.392C154.995 24.688 155.379 24.08 156.019 23.568C156.659 23.056 157.331 22.8 158.035 22.8H186.451C195.667 22.8 202.419 24.88 206.707 29.04C210.995 33.2 212.371 38.896 210.835 46.128C209.939 50.416 208.179 54.16 205.555 57.36C202.931 60.496 199.923 63.024 196.531 64.944L203.635 86.832C203.699 87.024 203.731 87.184 203.731 87.312C203.795 87.44 203.795 87.632 203.731 87.888C203.603 88.464 203.283 88.976 202.771 89.424C202.259 89.808 201.715 90 201.139 90H181.459C180.179 90 179.283 89.68 178.771 89.04C178.323 88.4 178.035 87.856 177.907 87.408L173.587 69.072H169.651L165.715 87.408C165.587 88.112 165.203 88.72 164.562 89.232C163.923 89.744 163.251 90 162.547 90H143.73ZM173.491 50.832H180.499C181.971 50.832 183.187 50.352 184.147 49.392C185.107 48.368 185.715 47.216 185.971 45.936C186.227 44.656 186.131 43.472 185.683 42.384C185.235 41.232 184.211 40.656 182.611 40.656H175.603L173.491 50.832ZM229.762 90C229.058 90 228.482 89.744 228.034 89.232C227.649 88.72 227.521 88.112 227.649 87.408L240.898 25.392C241.026 24.688 241.378 24.08 241.954 23.568C242.594 23.056 243.266 22.8 243.97 22.8H271.138C275.234 22.8 279.01 23.28 282.466 24.24C285.986 25.2 288.962 26.672 291.394 28.656C293.89 30.576 295.65 33.008 296.674 35.952C297.698 38.896 297.794 42.352 296.962 46.32C295.298 54.256 291.874 60.048 286.69 63.696C281.506 67.28 274.338 69.072 265.186 69.072L256.546 69.072L252.609 87.408C252.482 88.112 252.098 88.72 251.458 89.232C250.882 89.744 250.242 90 249.538 90H229.762ZM259.81 51.312H266.53C267.554 51.312 268.61 50.928 269.698 50.16C270.85 49.328 271.65 47.984 272.098 46.128C272.29 45.296 272.322 44.464 272.194 43.632C272.13 42.8 271.842 42.096 271.33 41.52C270.818 40.944 269.986 40.656 268.834 40.656H262.114L259.81 51.312ZM291.785 90C291.081 90 290.569 89.712 290.249 89.136C289.929 88.496 289.961 87.856 290.345 87.216L324.713 25.968C325.097 25.264 325.705 24.56 326.537 23.856C327.369 23.152 328.425 22.8 329.705 22.8H351.017C352.297 22.8 353.193 23.152 353.705 23.856C354.281 24.56 354.601 25.264 354.665 25.968L363.113 87.216C363.241 88.048 363.017 88.72 362.441 89.232C361.865 89.744 361.225 90 360.521 90H343.241C342.025 90 341.193 89.744 340.745 89.232C340.361 88.656 340.105 88.112 339.977 87.6L339.017 81.264H318.377L314.729 87.6C314.409 88.112 313.929 88.656 313.289 89.232C312.713 89.744 311.785 90 310.505 90H291.785ZM327.209 62.544H338.057L336.425 44.688L327.209 62.544ZM387.28 90C386.576 90 386 89.744 385.552 89.232C385.168 88.72 385.04 88.112 385.168 87.408L389.2 68.496L376.72 25.776C376.464 25.008 376.592 24.336 377.104 23.76C377.68 23.12 378.384 22.8 379.216 22.8H396.304C397.584 22.8 398.48 23.12 398.992 23.76C399.504 24.4 399.792 24.88 399.856 25.2L405.328 44.496L419.056 25.2C419.248 24.88 419.728 24.4 420.496 23.76C421.264 23.12 422.288 22.8 423.568 22.8H442.576C443.472 22.8 444.016 23.152 444.208 23.856C444.464 24.56 444.368 25.2 443.92 25.776L413.2 68.496L409.168 87.408C409.04 88.112 408.656 88.72 408.016 89.232C407.44 89.744 406.8 90 406.096 90H387.28Z" fill="url(#paint0_linear_214_239)"/>
<path d="M336.615 40L338.012 51.4012H350L339 58.4476L340.397 69.8488L332.5 63L321 69.8488L327.5 58.4476L318.615 51.4012H330.603L336.615 40Z" fill="white"/>
<path d="M202.128 148C201.864 148 201.672 147.928 201.552 147.784C201.432 147.616 201.396 147.412 201.444 147.172L205.944 126.004H199.032C198.792 126.004 198.612 125.932 198.492 125.788C198.372 125.62 198.336 125.416 198.384 125.176L198.708 123.664C198.756 123.4 198.864 123.196 199.032 123.052C199.224 122.884 199.452 122.8 199.716 122.8H217.068C217.332 122.8 217.512 122.884 217.608 123.052C217.728 123.196 217.764 123.4 217.716 123.664L217.392 125.176C217.344 125.416 217.224 125.62 217.032 125.788C216.864 125.932 216.648 126.004 216.384 126.004H209.508L205.008 147.172C204.96 147.412 204.84 147.616 204.648 147.784C204.48 147.928 204.264 148 204 148H202.128ZM223.376 148.36C221.672 148.36 220.328 148.024 219.344 147.352C218.384 146.656 217.76 145.696 217.472 144.472C217.208 143.248 217.232 141.844 217.544 140.26L219.704 130.108C219.752 129.868 219.872 129.676 220.064 129.532C220.256 129.364 220.472 129.28 220.712 129.28H222.512C222.752 129.28 222.92 129.364 223.016 129.532C223.136 129.676 223.172 129.868 223.124 130.108L221.036 140.08C220.772 141.256 220.676 142.252 220.748 143.068C220.844 143.86 221.156 144.46 221.684 144.868C222.236 145.252 223.088 145.444 224.24 145.444C225.8 145.444 227.168 144.976 228.344 144.04C229.52 143.08 230.288 141.76 230.648 140.08L232.772 130.108C232.82 129.868 232.94 129.676 233.132 129.532C233.324 129.364 233.54 129.28 233.78 129.28H235.544C235.784 129.28 235.964 129.364 236.084 129.532C236.204 129.676 236.24 129.868 236.192 130.108L232.556 147.172C232.508 147.412 232.388 147.616 232.196 147.784C232.028 147.928 231.824 148 231.584 148H229.928C229.688 148 229.496 147.928 229.352 147.784C229.232 147.616 229.196 147.412 229.244 147.172L229.568 145.588C229.04 146.14 228.5 146.632 227.948 147.064C227.396 147.472 226.76 147.784 226.04 148C225.344 148.24 224.456 148.36 223.376 148.36ZM246.148 154.84C245.908 154.84 245.728 154.756 245.608 154.588C245.464 154.444 245.416 154.252 245.464 154.012L250.576 130.108C250.624 129.868 250.732 129.676 250.9 129.532C251.092 129.364 251.308 129.28 251.548 129.28H253.204C253.444 129.28 253.624 129.364 253.744 129.532C253.864 129.676 253.9 129.868 253.852 130.108L253.528 131.692C254.296 130.9 255.136 130.24 256.048 129.712C256.96 129.184 258.184 128.92 259.72 128.92C261.04 128.92 262.144 129.16 263.032 129.64C263.92 130.096 264.592 130.732 265.048 131.548C265.528 132.34 265.828 133.252 265.948 134.284C266.092 135.316 266.068 136.408 265.876 137.56C265.828 137.944 265.756 138.304 265.66 138.64C265.588 138.976 265.504 139.336 265.408 139.72C265.12 140.824 264.724 141.892 264.22 142.924C263.74 143.956 263.116 144.892 262.348 145.732C261.604 146.548 260.704 147.196 259.648 147.676C258.616 148.132 257.416 148.36 256.048 148.36C254.584 148.36 253.42 148.108 252.556 147.604C251.692 147.076 251.068 146.428 250.684 145.66L248.884 154.012C248.836 154.252 248.716 154.444 248.524 154.588C248.356 154.756 248.14 154.84 247.876 154.84H246.148ZM255.688 145.444C256.84 145.444 257.824 145.18 258.64 144.652C259.48 144.1 260.164 143.392 260.692 142.528C261.244 141.64 261.664 140.692 261.952 139.684C262.072 139.324 262.168 138.976 262.24 138.64C262.312 138.304 262.372 137.956 262.42 137.596C262.564 136.588 262.576 135.652 262.456 134.788C262.36 133.9 262.036 133.192 261.484 132.664C260.956 132.112 260.116 131.836 258.964 131.836C257.764 131.836 256.708 132.112 255.796 132.664C254.908 133.216 254.176 133.924 253.6 134.788C253.024 135.628 252.628 136.492 252.412 137.38C252.316 137.764 252.208 138.22 252.088 138.748C251.992 139.276 251.908 139.744 251.836 140.152C251.692 140.992 251.692 141.82 251.836 142.636C252.004 143.452 252.4 144.124 253.024 144.652C253.648 145.18 254.536 145.444 255.688 145.444ZM275.011 148.36C273.691 148.36 272.599 148.132 271.735 147.676C270.871 147.196 270.211 146.56 269.755 145.768C269.299 144.952 269.011 144.028 268.891 142.996C268.795 141.964 268.831 140.872 268.999 139.72C269.071 139.336 269.143 138.976 269.215 138.64C269.287 138.304 269.371 137.944 269.467 137.56C269.755 136.432 270.139 135.364 270.619 134.356C271.099 133.324 271.699 132.4 272.419 131.584C273.163 130.744 274.051 130.096 275.083 129.64C276.139 129.16 277.363 128.92 278.755 128.92C280.291 128.92 281.443 129.184 282.211 129.712C283.003 130.216 283.615 130.84 284.047 131.584L284.335 130.108C284.383 129.868 284.491 129.676 284.659 129.532C284.851 129.364 285.079 129.28 285.343 129.28H286.963C287.203 129.28 287.383 129.364 287.503 129.532C287.647 129.676 287.695 129.868 287.647 130.108L284.011 147.172C283.963 147.412 283.843 147.616 283.651 147.784C283.483 147.928 283.279 148 283.039 148H281.383C281.143 148 280.963 147.928 280.843 147.784C280.723 147.616 280.687 147.412 280.735 147.172L281.059 145.66C280.315 146.428 279.499 147.076 278.611 147.604C277.747 148.108 276.547 148.36 275.011 148.36ZM275.767 145.444C276.967 145.444 277.999 145.168 278.863 144.616C279.751 144.064 280.471 143.368 281.023 142.528C281.575 141.664 281.959 140.788 282.175 139.9C282.271 139.516 282.367 139.06 282.463 138.532C282.583 137.98 282.679 137.512 282.751 137.128C282.943 136.288 282.955 135.46 282.787 134.644C282.643 133.828 282.271 133.156 281.671 132.628C281.095 132.1 280.219 131.836 279.043 131.836C277.915 131.836 276.943 132.112 276.127 132.664C275.335 133.192 274.675 133.9 274.147 134.788C273.643 135.652 273.235 136.588 272.923 137.596C272.827 137.956 272.743 138.304 272.671 138.64C272.599 138.976 272.539 139.324 272.491 139.684C272.347 140.692 272.311 141.64 272.383 142.528C272.455 143.392 272.755 144.1 273.283 144.652C273.811 145.18 274.639 145.444 275.767 145.444ZM295.241 155.92C293.681 155.92 292.421 155.704 291.461 155.272C290.501 154.84 289.769 154.312 289.265 153.688C288.761 153.088 288.437 152.476 288.293 151.852C288.125 151.252 288.077 150.772 288.149 150.412C288.197 150.172 288.305 149.968 288.473 149.8C288.617 149.632 288.797 149.548 289.013 149.548H290.885C291.101 149.548 291.269 149.596 291.389 149.692C291.509 149.788 291.581 149.992 291.605 150.304C291.629 150.664 291.725 151.06 291.893 151.492C292.085 151.948 292.445 152.332 292.973 152.644C293.525 152.98 294.329 153.148 295.385 153.148C296.369 153.148 297.293 152.992 298.157 152.68C299.045 152.392 299.801 151.864 300.425 151.096C301.073 150.352 301.541 149.32 301.829 148L302.333 145.552C301.589 146.296 300.749 146.92 299.813 147.424C298.877 147.904 297.713 148.144 296.321 148.144C294.929 148.144 293.777 147.916 292.865 147.46C291.977 146.98 291.305 146.344 290.849 145.552C290.393 144.736 290.105 143.812 289.985 142.78C289.889 141.748 289.925 140.668 290.093 139.54C290.141 139.18 290.201 138.856 290.273 138.568C290.345 138.256 290.429 137.92 290.525 137.56C290.837 136.432 291.233 135.364 291.713 134.356C292.217 133.324 292.841 132.4 293.585 131.584C294.329 130.744 295.217 130.096 296.249 129.64C297.281 129.16 298.493 128.92 299.885 128.92C301.325 128.92 302.489 129.196 303.377 129.748C304.289 130.276 304.949 130.924 305.357 131.692L305.681 130.144C305.729 129.904 305.849 129.7 306.041 129.532C306.233 129.364 306.461 129.28 306.725 129.28H308.345C308.585 129.28 308.765 129.364 308.885 129.532C309.029 129.7 309.077 129.904 309.029 130.144L305.321 147.604C305.081 148.804 304.733 149.908 304.277 150.916C303.821 151.948 303.209 152.836 302.441 153.58C301.697 154.324 300.737 154.9 299.561 155.308C298.385 155.716 296.945 155.92 295.241 155.92ZM297.041 145.264C298.217 145.264 299.249 144.988 300.137 144.436C301.025 143.884 301.757 143.188 302.333 142.348C302.933 141.508 303.341 140.656 303.557 139.792C303.629 139.456 303.713 139.048 303.809 138.568C303.929 138.064 304.013 137.644 304.061 137.308C304.205 136.444 304.205 135.592 304.061 134.752C303.917 133.912 303.545 133.216 302.945 132.664C302.345 132.112 301.445 131.836 300.245 131.836C299.117 131.836 298.133 132.112 297.293 132.664C296.453 133.192 295.757 133.9 295.205 134.788C294.653 135.652 294.233 136.588 293.945 137.596C293.873 137.932 293.801 138.256 293.729 138.568C293.657 138.856 293.597 139.168 293.549 139.504C293.381 140.512 293.345 141.46 293.441 142.348C293.537 143.212 293.861 143.92 294.413 144.472C294.989 145 295.865 145.264 297.041 145.264ZM318.379 148.36C316.627 148.36 315.187 148.012 314.059 147.316C312.931 146.62 312.139 145.66 311.683 144.436C311.251 143.188 311.167 141.772 311.431 140.188C311.479 139.78 311.575 139.264 311.719 138.64C311.863 137.992 311.995 137.476 312.115 137.092C312.499 135.484 313.123 134.068 313.987 132.844C314.851 131.62 315.955 130.66 317.299 129.964C318.643 129.268 320.215 128.92 322.015 128.92C323.791 128.92 325.243 129.268 326.371 129.964C327.499 130.66 328.291 131.62 328.747 132.844C329.203 134.068 329.287 135.484 328.999 137.092C328.927 137.476 328.819 137.992 328.675 138.64C328.555 139.264 328.447 139.78 328.351 140.188C327.943 141.772 327.307 143.188 326.443 144.436C325.603 145.66 324.511 146.62 323.167 147.316C321.823 148.012 320.227 148.36 318.379 148.36ZM318.523 145.588C320.035 145.588 321.367 145.12 322.519 144.184C323.671 143.224 324.475 141.832 324.931 140.008C325.027 139.648 325.135 139.192 325.255 138.64C325.375 138.088 325.471 137.632 325.543 137.272C325.855 135.448 325.699 134.068 325.075 133.132C324.451 132.172 323.383 131.692 321.871 131.692C320.383 131.692 319.063 132.172 317.911 133.132C316.759 134.068 315.955 135.448 315.499 137.272C315.403 137.632 315.295 138.088 315.175 138.64C315.055 139.192 314.971 139.648 314.923 140.008C314.587 141.832 314.719 143.224 315.319 144.184C315.943 145.12 317.011 145.588 318.523 145.588ZM341.069 148C340.829 148 340.637 147.928 340.493 147.784C340.373 147.616 340.337 147.412 340.385 147.172L345.497 123.268C345.545 123.028 345.653 122.836 345.821 122.692C346.013 122.524 346.229 122.44 346.469 122.44H348.197C348.437 122.44 348.617 122.524 348.737 122.692C348.857 122.836 348.893 123.028 348.845 123.268L343.769 147.172C343.721 147.412 343.601 147.616 343.409 147.784C343.241 147.928 343.037 148 342.797 148H341.069ZM356.77 148.36C355.018 148.36 353.578 148.012 352.45 147.316C351.322 146.62 350.53 145.66 350.074 144.436C349.642 143.188 349.558 141.772 349.822 140.188C349.87 139.78 349.966 139.264 350.11 138.64C350.254 137.992 350.386 137.476 350.506 137.092C350.89 135.484 351.514 134.068 352.378 132.844C353.242 131.62 354.346 130.66 355.69 129.964C357.034 129.268 358.606 128.92 360.406 128.92C362.182 128.92 363.634 129.268 364.762 129.964C365.89 130.66 366.682 131.62 367.138 132.844C367.594 134.068 367.678 135.484 367.39 137.092C367.318 137.476 367.21 137.992 367.066 138.64C366.946 139.264 366.838 139.78 366.742 140.188C366.334 141.772 365.698 143.188 364.834 144.436C363.994 145.66 362.902 146.62 361.558 147.316C360.214 148.012 358.618 148.36 356.77 148.36ZM356.914 145.588C358.426 145.588 359.758 145.12 360.91 144.184C362.062 143.224 362.866 141.832 363.322 140.008C363.418 139.648 363.526 139.192 363.646 138.64C363.766 138.088 363.862 137.632 363.934 137.272C364.246 135.448 364.09 134.068 363.466 133.132C362.842 132.172 361.774 131.692 360.262 131.692C358.774 131.692 357.454 132.172 356.302 133.132C355.15 134.068 354.346 135.448 353.89 137.272C353.794 137.632 353.686 138.088 353.566 138.64C353.446 139.192 353.362 139.648 353.314 140.008C352.978 141.832 353.11 143.224 353.71 144.184C354.334 145.12 355.402 145.588 356.914 145.588ZM377.299 148.36C375.691 148.36 374.323 148.036 373.195 147.388C372.067 146.716 371.251 145.768 370.747 144.544C370.243 143.296 370.147 141.808 370.459 140.08C370.531 139.72 370.627 139.24 370.747 138.64C370.867 138.04 370.975 137.56 371.071 137.2C371.695 134.608 372.835 132.58 374.491 131.116C376.171 129.652 378.319 128.92 380.935 128.92C382.351 128.92 383.527 129.124 384.463 129.532C385.399 129.916 386.131 130.432 386.659 131.08C387.211 131.704 387.583 132.364 387.775 133.06C387.967 133.756 388.027 134.416 387.955 135.04C387.931 135.28 387.835 135.484 387.667 135.652C387.523 135.796 387.331 135.868 387.091 135.868H385.219C384.979 135.868 384.787 135.808 384.643 135.688C384.523 135.568 384.463 135.376 384.463 135.112C384.487 133.936 384.163 133.084 383.491 132.556C382.843 132.028 381.943 131.764 380.791 131.764C379.375 131.764 378.079 132.208 376.903 133.096C375.751 133.984 374.935 135.412 374.455 137.38C374.359 137.764 374.263 138.196 374.167 138.676C374.071 139.132 373.987 139.54 373.915 139.9C373.579 141.892 373.735 143.332 374.383 144.22C375.031 145.084 376.075 145.516 377.515 145.516C378.619 145.516 379.639 145.276 380.575 144.796C381.535 144.316 382.315 143.488 382.915 142.312C383.083 142.024 383.227 141.832 383.347 141.736C383.491 141.64 383.683 141.592 383.923 141.592H385.759C385.975 141.592 386.143 141.664 386.263 141.808C386.383 141.952 386.407 142.144 386.335 142.384C386.167 142.984 385.867 143.632 385.435 144.328C385.003 145.024 384.415 145.684 383.671 146.308C382.951 146.908 382.063 147.4 381.007 147.784C379.951 148.168 378.715 148.36 377.299 148.36ZM396.335 148.36C395.015 148.36 393.923 148.132 393.059 147.676C392.195 147.196 391.535 146.56 391.079 145.768C390.623 144.952 390.335 144.028 390.215 142.996C390.119 141.964 390.155 140.872 390.323 139.72C390.395 139.336 390.467 138.976 390.539 138.64C390.611 138.304 390.695 137.944 390.791 137.56C391.079 136.432 391.463 135.364 391.943 134.356C392.423 133.324 393.023 132.4 393.743 131.584C394.487 130.744 395.375 130.096 396.407 129.64C397.463 129.16 398.687 128.92 400.079 128.92C401.615 128.92 402.767 129.184 403.535 129.712C404.327 130.216 404.939 130.84 405.371 131.584L405.659 130.108C405.707 129.868 405.815 129.676 405.983 129.532C406.175 129.364 406.403 129.28 406.667 129.28H408.287C408.527 129.28 408.707 129.364 408.827 129.532C408.971 129.676 409.019 129.868 408.971 130.108L405.335 147.172C405.287 147.412 405.167 147.616 404.975 147.784C404.807 147.928 404.603 148 404.363 148H402.707C402.467 148 402.287 147.928 402.167 147.784C402.047 147.616 402.011 147.412 402.059 147.172L402.383 145.66C401.639 146.428 400.823 147.076 399.935 147.604C399.071 148.108 397.871 148.36 396.335 148.36ZM397.091 145.444C398.291 145.444 399.323 145.168 400.187 144.616C401.075 144.064 401.795 143.368 402.347 142.528C402.899 141.664 403.283 140.788 403.499 139.9C403.595 139.516 403.691 139.06 403.787 138.532C403.907 137.98 404.003 137.512 404.075 137.128C404.267 136.288 404.279 135.46 404.111 134.644C403.967 133.828 403.595 133.156 402.995 132.628C402.419 132.1 401.543 131.836 400.367 131.836C399.239 131.836 398.267 132.112 397.451 132.664C396.659 133.192 395.999 133.9 395.471 134.788C394.967 135.652 394.559 136.588 394.247 137.596C394.151 137.956 394.067 138.304 393.995 138.64C393.923 138.976 393.863 139.324 393.815 139.684C393.671 140.692 393.635 141.64 393.707 142.528C393.779 143.392 394.079 144.1 394.607 144.652C395.135 145.18 395.963 145.444 397.091 145.444ZM411.381 148C411.141 148 410.949 147.928 410.805 147.784C410.685 147.616 410.649 147.412 410.697 147.172L415.809 123.268C415.857 123.028 415.965 122.836 416.133 122.692C416.325 122.524 416.541 122.44 416.781 122.44H418.509C418.749 122.44 418.929 122.524 419.049 122.692C419.169 122.836 419.205 123.028 419.157 123.268L414.081 147.172C414.033 147.412 413.913 147.616 413.721 147.784C413.553 147.928 413.349 148 413.109 148H411.381Z" fill="url(#paint1_linear_214_239)"/>
<defs>
<linearGradient id="paint0_linear_214_239" x1="219.5" y1="0" x2="219.5" y2="114" gradientUnits="userSpaceOnUse">
<stop stop-color="#0085FF"/>
<stop offset="1" stop-color="#1D41A8"/>
</linearGradient>
<linearGradient id="paint1_linear_214_239" x1="307" y1="114" x2="307" y2="157" gradientUnits="userSpaceOnUse">
<stop stop-color="#0085FF"/>
<stop offset="1" stop-color="#1D41A8"/>
</linearGradient>
</defs>
</svg>
